<?xml version="1.0" encoding="iso-8859-1"?>
<!-- Uploaded to: SVG Repo, www.svgrepo.com, Generator: SVG Repo Mixer Tools -->
<svg height="800px" width="800px" version="1.1" id="Layer_1" xmlns="http://www.w3.org/2000/svg" xmlns:xlink="http://www.w3.org/1999/xlink" 
	 viewBox="0 0 511.999 511.999" xml:space="preserve">
<path style="fill:#3F5968;" d="M170.091,171.381h206.773c16.929,0,30.638,13.719,30.638,30.633v268.904
	c0,16.915-13.709,30.633-30.638,30.633H135.139c-16.919,0-30.642-13.719-30.642-30.633V202.015
	c0-16.914,13.723-30.633,30.642-30.633h34.952V171.381z"/>
<path style="fill:#FFFFFF;" d="M333.318,282.804v85.107c0,42.689-34.624,77.287-77.322,77.287
	c-42.697,0-77.316-34.597-77.316-77.287v-85.107c0-42.686,34.619-77.279,77.316-77.279c21.349,0,40.691,8.648,54.678,22.635
	C324.662,242.142,333.318,261.469,333.318,282.804L333.318,282.804z"/>
<path d="M146.193,143.168c23.49,0,42.6-19.127,42.6-42.598l0.186-51.498c0-4.201,0.892-8.233,2.654-11.986
	c2.452-5.223,0.204-11.445-5.02-13.898c-5.223-2.453-11.446-0.204-13.898,5.02c-3.074,6.552-4.634,13.57-4.634,20.826l-0.186,51.498
	c0,11.988-9.736,21.739-21.704,21.739c-12.045,0-21.845-9.752-21.845-21.739V64.84c0-5.77-4.679-10.448-10.448-10.448
	c-5.77,0-10.448,4.679-10.448,10.448v35.693C103.452,124.042,122.626,143.168,146.193,143.168z"/>
<path d="M224.208,394.321c-3.143,4.84-1.767,11.31,3.072,14.453c8.553,5.554,18.482,8.49,28.717,8.49
	c5.77,0,10.448-4.679,10.448-10.448c0-5.77-4.679-10.448-10.448-10.448c-6.184,0-12.179-1.77-17.336-5.119
	C233.819,388.104,227.35,389.483,224.208,394.321z"/>
<path d="M203.235,317.939v46.579c0,6.046,1.018,11.978,3.024,17.634c1.519,4.285,5.548,6.959,9.848,6.959
	c1.159,0,2.338-0.195,3.493-0.604c5.438-1.93,8.284-7.902,6.355-13.341c-1.209-3.407-1.821-6.989-1.821-10.648v-46.579
	c0-5.77-4.679-10.448-10.448-10.448C207.915,307.49,203.235,312.169,203.235,317.939z"/>
<path d="M255.999,307.953c5.77,0,10.448-4.679,10.448-10.448v-43.722c0-5.77-4.679-10.448-10.448-10.448
	s-10.448,4.679-10.448,10.448v43.722C245.551,303.275,250.23,307.953,255.999,307.953z"/>
<path d="M376.864,160.933H266.501l0.133-111.861c0-13.117-5.187-25.457-14.604-34.75C242.668,5.086,230.282,0,217.15,0
	c-0.002,0-0.003,0-0.005,0c-5.91,0-11.695,1.04-17.194,3.09c-5.407,2.017-8.156,8.033-6.141,13.44
	c2.016,5.407,8.034,8.153,13.44,6.141c3.156-1.176,6.485-1.773,9.896-1.773c7.604-0.001,14.781,2.948,20.208,8.301
	c5.406,5.333,8.383,12.391,8.383,19.861l-0.133,111.873H135.139c-22.659,0-41.091,18.429-41.091,41.081v268.904
	c0,22.653,18.433,41.081,41.091,41.081h241.725c22.655,0,41.086-18.429,41.086-41.081V202.015
	C417.951,179.362,399.52,160.933,376.864,160.933z M397.054,470.919c0,11.13-9.057,20.184-20.19,20.184H135.139
	c-11.135,0-20.194-9.055-20.194-20.184V202.015c0-11.13,9.059-20.184,20.194-20.184h110.44l-0.017,13.889
	c-43.49,5.176-77.33,42.243-77.33,87.086v85.107c0,48.377,39.371,87.736,87.764,87.736c48.396,0,87.77-39.358,87.77-87.736v-85.107
	c0-23.433-9.129-45.463-25.704-62.033c-14.079-14.078-32.114-22.758-51.603-25.056l0.017-13.886h110.388
	c11.133,0,20.19,9.055,20.19,20.184L397.054,470.919L397.054,470.919z M255.996,215.974c17.871,0,34.667,6.951,47.292,19.575
	c12.627,12.623,19.581,29.406,19.581,47.255v85.107c0,36.855-30,66.839-66.873,66.839c-36.871,0-66.867-29.983-66.867-66.839
	v-85.107C189.129,245.954,219.126,215.974,255.996,215.974z"/>
</svg>