<svg xmlns="http://www.w3.org/2000/svg" version="1.1" xmlns:xlink="http://www.w3.org/1999/xlink" xmlns:svgjs="http://svgjs.dev/svgjs" width="128" height="128" viewBox="0 0 128 128"><g transform="matrix(0.8046875,0,0,0.8046875,12.221578124999994,12.221578124999994)"><svg viewBox="0 0 96 96" data-background-color="#2e024e" preserveAspectRatio="xMidYMid meet" height="128" width="128" xmlns="http://www.w3.org/2000/svg" xmlns:xlink="http://www.w3.org/1999/xlink"><g id="tight-bounds" transform="matrix(1,0,0,1,0.25950000000000273,0.25950000000000273)"><svg viewBox="0 0 95.481 95.481" height="95.481" width="95.481"><g><svg viewBox="0 0 95.481 95.481" height="95.481" width="95.481"><g><svg viewBox="0 0 95.481 95.481" height="95.481" width="95.481"><g id="textblocktransform"><svg viewBox="0 0 95.481 95.481" height="95.481" width="95.481" id="textblock"><g><svg viewBox="0 0 95.481 95.481" height="95.481" width="95.481"><g><svg viewBox="0 0 95.481 95.481" height="95.481" width="95.481"><g><svg xmlns="http://www.w3.org/2000/svg" xmlns:xlink="http://www.w3.org/1999/xlink" version="1.1" x="0" y="0" viewBox="13 13 38 38" enable-background="new 0 0 64 64" xml:space="preserve" height="95.481" width="95.481" class="icon-icon-0" data-fill-palette-color="accent" id="icon-0"><path fill="#ffffff" d="M35.506 39.47H28.613C26.902 38.711 25.022 37.051 25.022 33.389 25.022 33.389 29.463 30.715 30.543 25.545A2.555 2.555 0 0 1 28.788 23.125 2.57 2.57 0 0 1 31.358 20.558V32.287A1.61 1.61 0 0 0 30.47 33.719 1.617 1.617 0 0 0 33.705 33.719C33.705 33.069 33.317 32.511 32.759 32.255V20.558A2.57 2.57 0 0 1 35.328 23.125C35.328 24.255 34.591 25.204 33.572 25.545 34.654 30.715 39.095 33.389 39.095 33.389 39.098 37.051 37.218 38.711 35.506 39.47M37.916 42.271H26.204V40.871H37.916zM32 13C21.499 13 13 21.489 13 31.974 13 42.46 21.499 51 32 51S51 42.46 51 31.974C51 21.489 42.5 13 32 13" data-fill-palette-color="accent"></path></svg></g></svg></g></svg></g></svg></g></svg></g></svg></g><defs></defs></svg><rect width="95.481" height="95.481" fill="none" stroke="none" visibility="hidden"></rect></g></svg></g></svg>